<?xml version="1.0" encoding="UTF-8"?>
<svg xmlns="http://www.w3.org/2000/svg" width="700" height="160" viewBox="0 0 700 160">
    <defs>
      <radialGradient id="e43-soft">
        <stop offset="0%" stop-color="#9333ea" stop-opacity="0.9" />
        <stop offset="35%" stop-color="#c084fc" stop-opacity="0.55" />
        <stop offset="70%" stop-color="#c084fc" stop-opacity="0.18" />
        <stop offset="100%" stop-color="#c084fc" stop-opacity="0" />
      </radialGradient>
      <filter id="e43-glow" x="-50%" y="-50%" width="200%" height="200%">
        <feGaussianBlur stdDeviation="2.4" result="b" />
        <feMerge><feMergeNode in="b"/><feMergeNode in="SourceGraphic"/></feMerge>
      </filter>
      <filter id="e43-letterglow" x="-50%" y="-50%" width="200%" height="200%">
        <feGaussianBlur stdDeviation="0.5" result="b" />
        <feMerge><feMergeNode in="b"/><feMergeNode in="SourceGraphic"/></feMerge>
      </filter>
    </defs><g transform="translate(20,20) scale(1.2)"><g filter="url(#e43-glow)"><circle cx="50" cy="50" r="22" fill="url(#e43-soft)" opacity="0.32" /><line x1="50" y1="50" x2="34.95" y2="8.65" stroke="#c084fc" stroke-width="0.7" opacity="0.55" stroke-linecap="round" /><circle cx="34.95" cy="8.65" r="1.45" fill="#c084fc" /><line x1="50" y1="50" x2="66.06" y2="15.56" stroke="#c084fc" stroke-width="0.7" opacity="0.55" stroke-linecap="round" /><circle cx="66.06" cy="15.56" r="1.45" fill="#c084fc" /><line x1="50" y1="50" x2="93.23" y2="34.27" stroke="#c084fc" stroke-width="0.7" opacity="0.55" stroke-linecap="round" /><circle cx="93.23" cy="34.27" r="1.45" fill="#c084fc" /><line x1="50" y1="50" x2="81.18" y2="68.00" stroke="#c084fc" stroke-width="0.7" opacity="0.55" stroke-linecap="round" /><circle cx="81.18" cy="68.00" r="1.45" fill="#c084fc" /><line x1="50" y1="50" x2="57.29" y2="91.36" stroke="#c084fc" stroke-width="0.7" opacity="0.55" stroke-linecap="round" /><circle cx="57.29" cy="91.36" r="1.45" fill="#c084fc" /><line x1="50" y1="50" x2="21.72" y2="78.28" stroke="#c084fc" stroke-width="0.7" opacity="0.55" stroke-linecap="round" /><circle cx="21.72" cy="78.28" r="1.45" fill="#c084fc" /><line x1="50" y1="50" x2="6.17" y2="53.83" stroke="#c084fc" stroke-width="0.7" opacity="0.55" stroke-linecap="round" /><circle cx="6.17" cy="53.83" r="1.45" fill="#c084fc" /><circle cx="50" cy="50" r="4.5" fill="#0f0a1a" stroke="#c084fc" stroke-width="1.4" /><circle cx="50" cy="50" r="2" fill="#c084fc" /></g><g filter="url(#e43-letterglow)"><text x="26" y="60" text-anchor="middle" font-family="Inter, sans-serif" font-weight="500" font-size="52" fill="#e2e8f0" letter-spacing="-1">e</text><text x="74" y="60" text-anchor="middle" font-family="Inter, sans-serif" font-weight="500" font-size="52" fill="#e2e8f0" letter-spacing="-1">b</text></g></g><text x="170" y="78" font-family="Inter, sans-serif" font-weight="500" font-size="48" fill="#e2e8f0" letter-spacing="0">elisa <tspan fill="#c084fc">battistoni</tspan></text><text x="170" y="110" font-family="Inter, sans-serif" font-weight="500" font-size="14" fill="#64748b" letter-spacing="3">DEVELYS<tspan fill="#c084fc">·</tspan>VERSE</text></svg>